<svg xmlns="http://www.w3.org/2000/svg" viewBox="0 0 19.29 19.29"><defs><style>.cls-1{fill:#92842c;}</style></defs><g id="Capa_2" data-name="Capa 2"><g id="Capa_1-2" data-name="Capa 1"><rect class="cls-1" x="13.07" y="8.88" width="4.59" height="1.48" transform="translate(-2.3 13.68) rotate(-45)"/><rect class="cls-1" x="10.41" y="5.14" width="9.79" height="1.48" transform="translate(0.32 12.54) rotate(-45)"/><rect class="cls-1" x="7.38" y="3.18" width="4.59" height="1.48" transform="translate(0.06 7.99) rotate(-45)"/><rect class="cls-1" x="8.51" y="3.24" width="9.79" height="1.48" transform="translate(1.11 10.65) rotate(-45)"/><rect class="cls-1" x="8.88" y="1.63" width="1.48" height="4.59" transform="translate(0.04 7.95) rotate(-45)"/><rect class="cls-1" x="5.14" y="-0.91" width="1.48" height="9.79" transform="translate(-1.1 5.33) rotate(-45)"/><rect class="cls-1" x="3.18" y="7.32" width="1.48" height="4.59" transform="translate(-5.65 5.59) rotate(-45)"/><rect class="cls-1" x="3.24" y="0.99" width="1.48" height="9.79" transform="translate(-2.99 4.54) rotate(-45)"/><rect class="cls-1" x="1.63" y="8.93" width="4.59" height="1.48" transform="translate(-5.69 5.61) rotate(-45)"/><rect class="cls-1" x="-0.91" y="12.66" width="9.79" height="1.48" transform="translate(-8.31 6.74) rotate(-45)"/><rect class="cls-1" x="7.32" y="14.62" width="4.59" height="1.48" transform="translate(-8.05 11.3) rotate(-45)"/><rect class="cls-1" x="0.99" y="14.56" width="9.79" height="1.48" transform="translate(-9.1 8.64) rotate(-45)"/><rect class="cls-1" x="8.93" y="13.07" width="1.48" height="4.59" transform="translate(-8.03 11.34) rotate(-45)"/><rect class="cls-1" x="12.66" y="10.41" width="1.48" height="9.79" transform="translate(-6.89 13.96) rotate(-45)"/><rect class="cls-1" x="14.62" y="7.38" width="1.48" height="4.59" transform="translate(-2.34 13.69) rotate(-45)"/><rect class="cls-1" x="14.56" y="8.51" width="1.48" height="9.79" transform="translate(-5 14.75) rotate(-45)"/></g></g></svg>